<?xml version="1.0" encoding="UTF-8" standalone="no"?>
<svg xmlns="http://www.w3.org/2000/svg" height="99px" width="203px" version="1.1" xmlns:xlink="http://www.w3.org/1999/xlink" viewBox="0 0 203 99"><!-- Generator: Sketch 43.2 (39069) - http://www.bohemiancoding.com/sketch -->
 <title>Group</title>
 <desc>Created with Sketch.</desc>
 <g id="Page-1" fill-rule="evenodd" fill="none">
  <g id="Artboard-Copy-23" fill="#fff" transform="translate(-38 -27)">
   <g id="Group" transform="translate(38 27)">
    <path id="Fill-1" d="m121.93-0.00012662c-0.31 0.012662-0.62 0.176-0.91 0.49507-0.35 0.38364-0.64 0.88126-0.87 1.489-0.22 0.6103-0.4 1.2978-0.53 2.0664-0.13 0.7711-0.19 1.5396-0.19 2.3082 0 0.5128-0.07 1.0585-0.19 1.6333-0.13 0.5786-0.26 1.1231-0.39 1.6359-0.13 0.5143-0.26 0.9453-0.39 1.2973s-0.19 0.563-0.19 0.625c-0.08 0.207-0.09 0.386-0.07 0.552-2.1 3.607-3.96 6.17-5.57 7.668-1.9 1.763-3.59 2.643-5.07 2.643-1.61 0-2.67-0.529-3.18-1.586-0.52-1.057-0.76-2.243-0.73-3.557 0.03-1.313 0.37-3.028 1.02-5.144 0.06-0.384-0.08-0.719-0.44-1.009-0.35-0.289-0.75-0.497-1.2-0.625-0.45-0.127-0.87-0.176-1.26-0.145-0.38 0.035-0.61 0.178-0.67 0.434-0.13 0.576-0.39 1.539-0.77 2.883-0.39 1.346-0.891 2.692-1.499 4.038-0.614 1.347-1.321 2.533-2.125 3.558-0.803 1.025-1.657 1.537-2.556 1.537-0.579 0-1.062-0.256-1.447-0.769-0.386-0.512-0.661-1.185-0.821-2.018-0.161-0.832-0.21-1.794-0.145-2.884 0.064-1.09 0.225-2.178 0.483-3.269 0.257-1.089 0.61-2.146 1.062-3.172 0.449-1.0244 0.965-1.9386 1.543-2.74 0.58-0.8002 1.206-1.4257 1.881-1.8752 0.676-0.4482 1.367-0.6723 2.075-0.6723 0.835 0.0633 1.449 0.3039 1.829 0.7204 0.39 0.4178 0.65 0.8813 0.78 1.3928 0.19 0.6419 0.22 1.3155 0.09 2.0195 0.2 0.0658 0.39 0.1456 0.58 0.2406 0.19 0.0975 0.39 0.1126 0.58 0.0493 0.19-0.0645 0.4-0.2241 0.63-0.4824 0.22-0.2545 0.43-0.7027 0.62-1.3459 0-0.1266 0.02-0.4811 0.05-1.056 0.03-0.5773-0.09-1.1851-0.38-1.8283-0.29-0.6394-0.79-1.2155-1.5-1.7295-0.71-0.5128-1.77-0.8015-3.181-0.8648-0.773 0-1.69 0.2406-2.751 0.7217s-2.109 1.2497-3.137 2.3056c-1.029 1.0586-1.962 2.4209-2.797 4.0872-0.837 1.6663-1.383 3.6203-1.64 5.8633-0.322 2.244-0.305 4.071 0.048 5.479 0.353 1.41 0.852 2.501 1.495 3.269 0.643 0.77 1.319 1.283 2.026 1.538 0.707 0.257 1.286 0.385 1.736 0.385 0.837 0.065 1.673-0.239 2.51-0.913 0.835-0.673 1.576-1.394 2.219-2.162 0.708-0.898 1.412-1.955 2.122-3.173 0.19 1.09 0.58 2.052 1.16 2.883 0.51 0.706 1.19 1.38 2.02 2.019 0.84 0.641 2 0.93 3.48 0.866 1.35 0 2.68-0.464 4-1.395 1.32-0.927 2.53-2.002 3.62-3.22 1.09-1.216 2.04-2.436 2.85-3.652 0.8-1.219 1.36-2.147 1.69-2.789v-0.096c0.58-1.156 0.89-2.102 1.01-2.887 0.35-0.704 0.56-1.248 0.63-1.632 0.12-0.5112 0.44-0.6885 0.96-0.5289 0.51 0.1608 1.09 0.2405 1.74 0.2405 0.32 0 0.58-0.0797 0.77-0.2405 0.19-0.1596 0.35-0.3026 0.48-0.4318 0.13-0.1279 0.27-0.2076 0.44-0.2405 0.15-0.0317 0.36 0.0481 0.62 0.2405 0.19 0.1292 0.24 0.3368 0.15 0.6255-0.1 0.2874-0.21 0.7062-0.34 1.2492-0.13 0.545-0.28 1.201-0.43 1.971-0.17 0.768-0.21 1.699-0.15 2.788 0 0.449 0.06 1.186 0.19 2.21 0.13 1.026 0.44 2.068 0.92 3.125s1.24 2.02 2.27 2.885c1.03 0.864 2.44 1.33 4.24 1.394v-0.097c1.68 0.129 3.22-0.29 4.63-1.249 0.33-0.223 0.62-0.48 0.93-0.717 0.51 0.532 1.09 1.014 1.78 1.436 1.28 0.804 3.02 1.236 5.21 1.299 1.8 0 3.47-0.528 5.01-1.585 1.55-1.058 2.9-2.26 4.06-3.606 1.15-1.346 2.07-2.644 2.75-3.894 0.67-1.249 1.1-2.034 1.3-2.355 0.51-0.961 0.83-1.81 0.96-2.547 0.13-0.736 0.15-1.313 0.05-1.731-0.1-0.4167-0.27-0.656-0.53-0.7218-0.26-0.0621-0.48 0.0975-0.68 0.4808-0.57 1.027-1.28 2.245-2.12 3.653-0.83 1.412-1.82 2.773-2.94 4.086-1.13 1.316-2.4 2.436-3.81 3.365-1.42 0.93-2.99 1.395-4.73 1.395-1.54 0-2.8-0.416-3.76-1.25 0.71-0.833 1.58-2.05 2.6-3.654 1.03-1.601 1.93-3.395 2.7-5.383 0.33-0.833 0.68-1.746 1.07-2.7409 0.38-0.9927 0.64-1.9714 0.77-2.9312 0.13-0.961 0.04-1.8751-0.24-2.7399-0.29-0.8661-0.95-1.6182-1.98-2.2601-1.29-0.83185-2.54-0.91289-3.77-0.2393-1.22 0.6723-2.28 1.7308-3.18 3.173-0.9 1.4421-1.64 3.0261-2.22 4.7569-0.58 1.7305-0.9 3.2375-0.96 4.5185-0.07 1.284 0 2.629 0.19 4.039 0.15 1.084 0.44 2.102 0.88 3.054-1.11 0.845-2.24 1.272-3.39 1.272-1.93 0-3.13-0.736-3.62-2.211-0.48-1.474-0.69-3.236-0.62-5.288 0-1.024 0.06-1.827 0.19-2.403 0.13-0.577 0.27-1.057 0.43-1.442s0.33-0.737 0.49-1.0584c0.16-0.3203 0.27-0.7685 0.33-1.3459 0.07-0.5761 0.08-1.0572 0.05-1.4409-0.03-0.3849-0.11-0.7698-0.24-1.1547-0.13-0.3836-0.35-0.6736-0.68-0.8648-0.57-0.3203-1.12-0.4811-1.63-0.4811-0.52 0-0.99 0.0658-1.4 0.1925-0.42 0.1291-0.79 0.2886-1.11 0.4798-0.33 0.1937-0.55 0.3229-0.68 0.3849-0.13 0.0659-0.34 0.1292-0.63 0.1938-0.29 0.0645-0.53-0.033-0.72-0.2887-0.26-0.2571-0.24-0.5913 0.05-1.0104 0.29-0.4153 0.43-0.8483 0.43-1.2978 0-0.1925-0.03-0.447-0.09-0.7686-0.07-0.3203-0.18-0.6406-0.34-0.961-0.16-0.3203-0.39-0.62546-0.68-0.91414-0.29-0.28742-0.62-0.43302-1.01-0.43302v-0.000005c-0.04-0.0063309-0.08-0.010129-0.13-0.012662v3.8e-7h-0.07zm17.47 13.76c0.26-1.665 0.66-3.219 1.21-4.6628 0.54-1.4409 1.14-2.626 1.78-3.5567 0.64-0.928 1.22-1.3598 1.74-1.2978 0.45 0.0659 0.74 0.3229 0.87 0.7699 0.12 0.4482 0.16 0.9939 0.09 1.6333-0.06 0.6419-0.22 1.3459-0.48 2.117-0.26 0.7673-0.51 1.5371-0.77 2.3061-0.45 1.154-1.11 2.42-1.98 3.798-0.87 1.379-1.65 2.515-2.36 3.412-0.32-1.344-0.36-2.85-0.1-4.519zm-106.71-11.439c-1.35 0.1292-2.365 0.528-3.039 1.2016-0.676 0.6723-1.11 1.4903-1.303 2.4513-0.386 0.1291-0.709 0.2583-0.964 0.3849-0.26 0.1291-0.548 0.3849-0.868 0.7685-0.581 0.7065-1.224 1.7954-1.931 3.269-0.709 1.475-1.254 3.782-1.64 6.922-0.129 0.769-0.112 1.668 0.048 2.692 0.161 1.026 0.45 2.004 0.868 2.931 0.418 0.931 1.013 1.73 1.785 2.403 0.772 0.674 1.738 1.044 2.895 1.107 2.444 0.129 4.391-0.625 5.837-2.259 1.449-1.636 2.524-3.541 3.233-5.72h0.386c2.251 0.32 4.133 0.192 5.644-0.385 0.81-0.309 1.526-0.659 2.161-1.042 0.007 0.063 0.001 0.114 0.009 0.176 0.13 1.091 0.418 2.15 0.869 3.174 0.448 1.026 1.028 1.907 1.736 2.644s1.544 1.138 2.509 1.2c1.221 0.13 2.268-0.175 3.136-0.912 0.868-0.736 1.623-1.554 2.267-2.451 0.707-1.09 1.318-2.309 1.834-3.655 0.255 1.346 0.706 2.565 1.351 3.655 0.514 0.897 1.254 1.73 2.218 2.498 0.966 0.77 2.252 1.123 3.86 1.059 1.736 0 3.264-0.448 4.583-1.346 1.318-0.898 2.461-1.907 3.425-3.029 0.966-1.12 1.721-2.212 2.268-3.269 0.546-1.057 0.882-1.745 1.013-2.066h0.097c0.448-0.963 0.738-1.811 0.868-2.549 0.127-0.736 0.145-1.297 0.047-1.682-0.094-0.384-0.273-0.6086-0.529-0.6719-0.259-0.0645-0.483 0.095-0.676 0.4799-0.578 1.027-1.222 2.227-1.929 3.605-0.709 1.379-1.544 2.66-2.51 3.845-0.964 1.188-2.074 2.18-3.328 2.981-1.254 0.802-2.688 1.105-4.294 0.914-1.287-0.129-2.17-0.785-2.654-1.972-0.481-1.185-0.692-2.513-0.627-3.989 0-0.897 0.015-1.73 0.048-2.5 0.032-0.77 0.08-1.473 0.145-2.115 0.065-0.704 0.129-1.4084 0.193-2.1149 0.195-0.5115 0.321-0.9623 0.387-1.3459 0.062-0.3204 0.015-0.6559-0.146-1.0091-0.161-0.352-0.499-0.5926-1.012-0.7218-1.222-0.319-2.027 0.3216-2.412 1.9233-0.259 0.5141-0.419 1.2016-0.483 2.0677-0.065 0.8647-0.258 1.6817-0.578 2.4517-0.193 0.576-0.516 1.362-0.966 2.355-0.451 0.993-0.949 1.97-1.496 2.931-0.546 0.961-1.127 1.779-1.735 2.452-0.613 0.673-1.176 0.978-1.691 0.912-0.9-0.127-1.446-0.865-1.639-2.21s-0.226-2.788-0.096-4.326c0.193-1.794 0.514-3.814 0.964-6.0573 0.322-0.6394 0.545-1.2167 0.676-1.7308 0.129-0.447 0.145-0.88 0.048-1.2965-0.096-0.4166-0.402-0.7217-0.916-0.9142-0.516-0.1925-0.949-0.2241-1.302-0.095-0.355 0.1279-0.628 0.3052-0.821 0.5268-0.193 0.2266-0.355 0.5634-0.482 1.0103-0.258 0.9611-0.516 1.9562-0.772 2.9806-0.258 0.8977-0.499 1.8431-0.725 2.8361-0.171 0.752-0.328 1.443-0.48 2.103-0.572 0.5-1.276 0.969-2.124 1.406-0.868 0.449-1.849 0.641-2.943 0.577-0.771 0-1.639-0.16-2.605-0.48 0.064-0.322 0.112-0.61 0.145-0.866 0.032-0.256 0.048-0.543 0.048-0.865 0.193-2.116 0.112-3.8932-0.241-5.3366-0.353-1.4409-0.853-2.6108-1.495-3.5085-0.645-0.8965-1.336-1.5384-2.075-1.922-0.634-0.3305-1.235-0.4951-1.798-0.4951-0.094 0-0.185 0.0051-0.276 0.0139zm-0.965 7.307c-0.323-0.8319-0.403-1.6979-0.242-2.5969 0.16-0.8964 0.66-1.3776 1.497-1.4409 0.578-0.0633 1.028 0.176 1.35 0.7205 0.321 0.5457 0.563 1.2345 0.724 2.0663 0.16 0.8344 0.257 1.7653 0.29 2.7893 0.032 1.026 0.048 1.955 0.048 2.788-1.93-1.218-3.153-2.66-3.667-4.3263zm-2.316 13.939c-0.771-0.064-1.384-0.304-1.832-0.721-0.453-0.416-0.773-0.944-0.966-1.586-0.193-0.64-0.306-1.298-0.337-1.97-0.034-0.674-0.049-1.265-0.049-1.781 0-0.446 0.098-1.039 0.291-1.777 0.192-0.736 0.433-1.442 0.723-2.115 0.288-0.673 0.594-1.297 0.916-1.875 0.321-0.576 0.611-0.961 0.868-1.155 0.386 1.027 0.933 2.053 1.64 3.077 0.387 0.707 0.948 1.38 1.688 2.02 0.741 0.642 1.559 1.218 2.462 1.731-0.194 0.769-0.483 1.523-0.868 2.258-0.387 0.737-0.806 1.411-1.255 2.019-0.451 0.61-0.965 1.09-1.544 1.442-0.49 0.299-0.981 0.448-1.471 0.448-0.089 0-0.177-0.005-0.266-0.015zm-11.005-18.266c-0.84 1.0902-1.452 3.0755-1.841 5.9598-0.455 1.153-0.99 2.403-1.605 3.749-0.616 1.346-1.281 2.596-1.994 3.75-0.715 1.154-1.508 2.131-2.384 2.932-0.8754 0.804-1.7675 1.235-2.6735 1.299-0.7142 0.063-1.1513-0.465-1.314-1.587-0.1627-1.12-0.2427-2.387-0.2427-3.798 0-0.704 0.0623-1.521 0.1931-2.45 0.1284-0.93 0.2898-1.812 0.4829-2.644 0.2555-0.962 0.5147-1.955 0.7701-2.9818 0.1932-0.5115 0.291-0.9446 0.291-1.2978 0-0.3507-0.0826-0.704-0.2414-1.056-0.1614-0.352-0.4346-0.5925-0.8197-0.7217-0.4409-0.1924-0.8654-0.0494-1.2733 0.4318-0.4079 0.4811-0.7853 1.1864-1.1297 2.1157-0.3469 0.9294-0.6595 2.0178-0.9416 3.2688-0.2834 1.25-0.4867 2.58-0.6113 3.99-0.1931 2.756 0.1919 4.936 1.1577 6.536 0.9645 1.603 2.3458 2.437 4.1491 2.501 1.6062 0.064 3.0223-0.641 4.2453-2.116 1.222-1.473 2.378-3.235 3.473-5.288-0.129 1.668-0.258 3.316-0.386 4.952-0.13 1.634-0.258 3.158-0.386 4.566-1.107 0.77-2.439 1.841-3.999 3.221-1.5622 1.378-3.1036 3.076-4.6222 5.095-1.5224 2.02-2.8936 4.34-4.1148 6.972-1.2212 2.626-2.0586 5.605-2.5085 8.939h0.000017c-0.12835 0.962-0.096579 1.971 0.096583 3.028 0.19188 1.056 0.56295 2.051 1.1094 2.981 0.5477 0.928 1.2542 1.713 2.1222 2.355 0.8679 0.64 1.9138 0.992 3.1362 1.056 2.0752 0.066 3.7791-0.592 5.1081-1.97 1.331-1.379 2.386-3.077 3.165-5.095 0.777-2.02 1.345-4.167 1.704-6.44 0.354-2.277 0.565-4.28 0.631-6.009 0.13-1.731 0.195-3.509 0.195-5.336 0-1.828 0.096-3.574 0.291-5.239-0.064-0.322-0.082-0.612-0.048-0.866 0.031-0.257 0.08-0.545 0.146-0.865 0.32-0.192 0.579-0.37 0.772-0.529 0.193-0.161 0.387-0.305 0.578-0.432 0.194-0.13 0.387-0.225 0.58-0.29 0.255-0.128 0.515-0.287 0.771-0.48 0.193-0.128 0.34-0.272 0.435-0.433 0.096-0.159 0.048-0.335-0.144-0.528-0.324-0.32-0.709-0.591-1.159-0.816-0.449-0.226-0.932-0.241-1.446-0.049 0.192-1.025 0.289-1.923 0.289-2.691 0-0.833 0.145-1.924 0.433-3.27 0.29-1.345 0.595-2.74 0.918-4.182 0.32-1.442 0.658-2.819 1.014-4.132 0.352-1.315 0.626-2.3238 0.819-3.0303l0.192-0.0949c0.515-1.346 0.58-2.3551 0.195-3.0287-0.387-0.6723-0.806-1.0724-1.255-1.2028-0.134-0.0481-0.272-0.0722-0.411-0.0722-0.594 0-1.231 0.4406-1.912 1.3231zm-14.016 51.386c-0.4384-0.611-0.7332-1.316-0.8908-2.116-0.1563-0.803-0.2186-1.603-0.1855-2.403 0.0305-0.803 0.0457-1.427 0.0457-1.875 0.0648-2.307 0.4842-4.438 1.2555-6.393 0.7714-1.956 1.7372-3.749 2.8949-5.384 1.1576-1.634 2.4119-3.075 3.7625-4.326 1.349-1.247 2.599-2.317 3.754-3.214-0.058 0.657-0.105 1.221-0.136 1.675-0.033 0.482-0.047 0.784-0.047 0.915 0 0.191-0.067 0.912-0.196 2.162s-0.275 2.611-0.439 4.086c-0.163 1.474-0.327 2.886-0.488 4.23-0.163 1.345-0.276 2.211-0.342 2.596-0.13 0.447-0.294 1.265-0.488 2.451-0.196 1.186-0.536 2.404-1.026 3.653-0.488 1.25-1.17 2.37-2.0481 3.365-0.8781 0.993-2.0015 1.489-3.3675 1.489-0.9366 0-1.6228-0.304-2.0587-0.911zm48.275-28.986v11.826c-0.373-0.303-0.757-0.59-1.158-0.86-2.555-1.722-5.657-2.733-8.967-2.731-2.206 0-4.324 0.448-6.244 1.257-2.882 1.216-5.324 3.239-7.054 5.786-1.728 2.547-2.742 5.637-2.741 8.937 0 2.197 0.45 4.307 1.263 6.219 1.219 2.873 3.248 5.305 5.806 7.029 2.556 1.722 5.658 2.731 8.97 2.731 2.204 0 4.194-0.447 6.115-1.258 2.882-1.215 5.324-3.237 7.052-5.786 1.73-2.546 2.744-5.638 2.743-8.935 0-0.781-0.044-24.215-0.044-24.215h-5.741zm-14 33.356c-1.783-0.75-3.31-2.011-4.384-3.597-1.074-1.587-1.698-3.48-1.699-5.544 0-1.379 0.278-2.676 0.781-3.861 0.753-1.777 2.021-3.298 3.611-4.368 1.593-1.07 3.493-1.691 5.566-1.693 1.382 0 2.685 0.278 3.874 0.779 1.782 0.75 3.309 2.012 4.384 3.597 1.073 1.587 1.697 3.481 1.698 5.546 0 1.377-0.278 2.674-0.781 3.86-0.754 1.777-2.02 3.299-3.611 4.367-1.593 1.071-3.492 1.692-5.564 1.693-1.384 0-2.686-0.278-3.875-0.779zm141.17 6.332h5.74v-37.165h-5.74v37.165zm-56.17-37.165v21.692c0 2.175 0.45 4.26 1.25 6.155 1.21 2.84 3.22 5.249 5.75 6.952 2.53 1.706 5.6 2.703 8.87 2.702v-5.722c-1.4 0-2.73-0.282-3.94-0.79-1.81-0.765-3.36-2.048-4.46-3.659-1.09-1.614-1.72-3.539-1.72-5.638v-7.986h10.12v-5.721h-10.12v-7.985h-5.75zm34.31 5.712c-2.2 0-4.32 0.448-6.24 1.257-2.88 1.216-5.32 3.239-7.05 5.786s-2.74 5.637-2.74 8.937c0 2.197 0.45 4.307 1.26 6.219 1.22 2.873 3.25 5.305 5.8 7.029 2.56 1.722 5.66 2.731 8.97 2.731 2.21 0 4.33-0.447 6.25-1.258 1.41-0.595 2.71-1.384 3.88-2.332v3.084h5.74s0.04-14.691 0.04-15.473c0-2.198-0.44-4.308-1.26-6.221-1.22-2.871-3.25-5.306-5.81-7.028-2.55-1.722-5.52-2.731-8.83-2.731h-0.01zm-3.87 25.121c-1.79-0.75-3.31-2.011-4.39-3.597-1.07-1.587-1.69-3.48-1.69-5.544 0-1.379 0.27-2.676 0.78-3.861 0.75-1.777 2.02-3.298 3.61-4.368s3.49-1.691 5.56-1.693c1.39 0 2.69 0.278 3.88 0.779 1.78 0.75 3.31 2.012 4.38 3.597 1.07 1.587 1.7 3.481 1.7 5.546 0 1.377-0.28 2.674-0.78 3.86-0.75 1.777-2.02 3.299-3.61 4.367-1.6 1.071-3.49 1.692-5.57 1.693-1.38 0-2.68-0.278-3.87-0.779zm-63.771-25.121c-2.205 0-4.323 0.448-6.243 1.257-2.881 1.216-5.325 3.239-7.053 5.786s-2.742 5.637-2.741 8.937c0 2.197 0.45 4.307 1.262 6.219 1.22 2.873 3.249 5.305 5.807 7.029 2.556 1.722 5.658 2.731 8.968 2.731 2.206 0 4.323-0.447 6.243-1.258 1.408-0.593 2.71-1.381 3.878-2.327-0.04 1.294-0.31 2.516-0.79 3.639-0.766 1.807-2.053 3.353-3.671 4.442-1.62 1.087-3.552 1.719-5.66 1.72v5.722c2.183 0.001 4.279-0.44 6.179-1.242 2.851-1.204 5.262-3.205 6.982-5.727 1.71-2.519 2.71-5.576 2.71-8.842 0 0 0.04-11.324 0.04-12.106 0-2.198-0.45-4.308-1.26-6.221-1.22-2.871-3.25-5.306-5.809-7.028-2.554-1.722-5.528-2.731-8.837-2.731h-0.005zm-3.874 25.121c-1.782-0.75-3.31-2.011-4.383-3.597-1.074-1.587-1.699-3.48-1.699-5.544 0-1.379 0.278-2.676 0.78-3.861 0.753-1.777 2.022-3.298 3.611-4.368 1.593-1.07 3.492-1.691 5.565-1.693 1.384 0 2.685 0.278 3.875 0.779 1.783 0.75 3.31 2.012 4.384 3.597 1.074 1.587 1.702 3.481 1.702 5.546 0 1.377-0.28 2.674-0.785 3.86-0.753 1.777-2.02 3.299-3.611 4.367-1.592 1.071-3.492 1.692-5.565 1.693-1.382 0-2.684-0.278-3.874-0.779zm25.345 6.332h5.75v-29.686h-5.75v29.686zm-48.238 0h5.743v-29.686h-5.743v29.686zm126.95-4.375c0 2.659 2.16 4.814 4.83 4.814s4.84-2.155 4.84-4.814c0-2.661-2.17-4.816-4.84-4.816s-4.83 2.155-4.83 4.816zm-0.11 33.378l-3.19-7.337-1.78 9.239h1l1.13-5.913h0.02l2.82 6.271 2.82-6.271h0.03l1.13 5.913h1l-1.78-9.239-3.2 7.337zm-46.68 1.902h1.07l1.06-2.482h3.74l1.04 2.482h1.08l-3.94-9.16-4.05 9.16zm4.02-6.887l1.47 3.501h-2.97l1.5-3.501zm-39.57 6.887h0.98v-6.736l6.84 7.128v-9.133h-0.98v6.771l-6.84-7.143v9.113zm-20.872 0h0.978v-6.736l6.839 7.128v-9.133h-0.976v6.771l-6.841-7.143v9.113zm110.52-6.667c0 1.254 0.88 1.773 1.9 2.236l0.54 0.233c0.81 0.371 1.62 0.72 1.62 1.739 0 0.986-0.86 1.704-1.81 1.704-0.94 0-1.62-0.729-1.75-1.622l-0.96 0.266c0.28 1.356 1.33 2.261 2.74 2.261 1.52 0 2.75-1.172 2.75-2.7 0-1.392-0.96-1.96-2.1-2.458l-0.58-0.256c-0.6-0.266-1.38-0.614-1.38-1.367 0-0.8 0.68-1.356 1.46-1.356 0.74 0 1.16 0.348 1.51 0.949l0.78-0.497c-0.47-0.859-1.29-1.357-2.27-1.357-1.3 0-2.45 0.869-2.45 2.225zm-31.41 2.306c0 2.517 2.07 4.511 4.57 4.511s4.57-1.994 4.57-4.511c0-2.502-2.07-4.531-4.57-4.531s-4.57 2.029-4.57 4.531zm0.97-0.011c0-1.982 1.58-3.615 3.6-3.615 2.01 0 3.59 1.633 3.59 3.615 0 1.971-1.6 3.617-3.59 3.617s-3.6-1.646-3.6-3.617zm-91.982 0.011c0 2.517 2.071 4.511 4.572 4.511s4.572-1.994 4.572-4.511c0-2.502-2.071-4.531-4.572-4.531s-4.572 2.029-4.572 4.531zm0.975-0.011c0-1.982 1.584-3.615 3.597-3.615s3.594 1.633 3.594 3.615c0 1.971-1.605 3.617-3.594 3.617-1.99 0-3.597-1.646-3.597-3.617zm-42.274 0.035c0 2.482 2.093 4.487 4.572 4.487 0.93 0 1.86-0.314 2.618-0.858v-1.207c-0.699 0.697-1.665 1.16-2.654 1.16-1.966 0-3.559-1.692-3.559-3.617 0-1.924 1.582-3.615 3.536-3.615 1.012 0 1.978 0.439 2.677 1.158v-1.206c-0.781-0.578-1.641-0.857-2.618-0.857-2.514 0-4.572 2.051-4.572 4.555zm144.17-4.404v8.741h0.98v-3.838h0.25l2.65 3.838h1.2l-2.79-3.918c1.34-0.116 2.2-1.068 2.2-2.412 0-1.971-1.55-2.411-3.22-2.411h-1.27zm0.98 0.903h0.29c1.18 0 2.24 0.138 2.24 1.577 0 1.357-1.12 1.565-2.22 1.565h-0.31v-3.142zm-19.15-0.903v8.741h0.98v-4.337h2.92v-0.903h-2.92v-2.598h3.01v-0.903h-3.99zm-7.53 0v0.903h2.12v7.838h0.98v-7.838h2.14v-0.903h-5.24zm-14.1 0v8.741h3.4v-0.906h-2.42v-7.835h-0.98zm-7.03 0v8.741h0.98v-3.827h0.71c0.73 0 1.49-0.091 2.08-0.58 0.55-0.45 0.84-1.171 0.84-1.877 0-0.778-0.34-1.541-0.99-1.993-0.64-0.441-1.42-0.464-2.17-0.464h-1.45zm0.98 0.903h0.36c1.14 0 2.29 0.104 2.29 1.531 0 1.251-0.91 1.576-2 1.576h-0.65v-3.107zm-13.22-0.903v8.741h4.54v-0.906h-3.57v-3.431h3.47v-0.903h-3.47v-2.598h3.57v-0.903h-4.54zm-15.2 8.741h0.98v-8.741h-0.98v8.741zm-5.675-8.741v8.741h3.395v-0.906h-2.418v-7.835h-0.977zm-34.734 0v8.741h4.549v-0.906h-3.572v-3.431h3.468v-0.903h-3.468v-2.598h3.572v-0.903h-4.549zm-3.276 0l-2.501 6.665-2.501-6.665h-1.06l3.561 9.262 3.561-9.262h-1.06zm-9.243 8.741h0.979v-8.741h-0.979v8.741zm-7.542-8.741v0.903h2.117v7.838h0.978v-7.838h2.141v-0.903h-5.236zm-16.313 0v8.741h4.549v-0.906h-3.57v-3.431h3.467v-0.903h-3.467v-2.598h3.57v-0.903h-4.549zm-6.577 0v8.741h0.977v-4.337h2.92v-0.903h-2.92v-2.598h3.013v-0.903h-3.99zm-6.578 0v8.741h0.976v-4.337h2.921v-0.903h-2.921v-2.598h3.015v-0.903h-3.991zm-7.3396 0v8.741h4.5496v-0.906h-3.5711v-3.431h3.4671v-0.903h-3.4671v-2.598h3.5711v-0.903h-4.5496z"/>
   </g>
  </g>
 </g>
</svg>
